G04 #@! TF.FileFunction,Other,ECO1*
%FSLAX46Y46*%
G04 Gerber Fmt 4.6, Leading zero omitted, Abs format (unit mm)*
G04 Created by KiCad (PCBNEW 4.0.1-stable) date 2017/02/01 16:31:02*
%MOMM*%
G01*
G04 APERTURE LIST*
%ADD10C,0.100000*%
%ADD11C,0.300000*%
G04 APERTURE END LIST*
D10*
D11*
X120586572Y-130352143D02*
X121729429Y-130352143D01*
X121158000Y-130923571D02*
X121158000Y-129780714D01*
X120586572Y-132752143D02*
X121729429Y-132752143D01*
X132230857Y-130495000D02*
X132945143Y-130495000D01*
X132088000Y-130923571D02*
X132588000Y-129423571D01*
X133088000Y-130923571D01*
X132195143Y-133323571D02*
X132195143Y-131823571D01*
X133052286Y-133323571D02*
X132409429Y-132466429D01*
X133052286Y-131823571D02*
X132195143Y-132680714D01*
X176375143Y-87526428D02*
X176446571Y-87383571D01*
X176446571Y-87097856D01*
X176375143Y-86954999D01*
X176232286Y-86883571D01*
X176160857Y-86883571D01*
X176018000Y-86954999D01*
X175946571Y-87097856D01*
X175946571Y-87312142D01*
X175875143Y-87454999D01*
X175732286Y-87526428D01*
X175660857Y-87526428D01*
X175518000Y-87454999D01*
X175446571Y-87312142D01*
X175446571Y-87097856D01*
X175518000Y-86954999D01*
X176375143Y-85669285D02*
X176446571Y-85812142D01*
X176446571Y-86097856D01*
X176375143Y-86240713D01*
X176232286Y-86312142D01*
X175660857Y-86312142D01*
X175518000Y-86240713D01*
X175446571Y-86097856D01*
X175446571Y-85812142D01*
X175518000Y-85669285D01*
X175660857Y-85597856D01*
X175803714Y-85597856D01*
X175946571Y-86312142D01*
X176446571Y-84740713D02*
X176375143Y-84883571D01*
X176232286Y-84954999D01*
X174946571Y-84954999D01*
X176375143Y-83597857D02*
X176446571Y-83740714D01*
X176446571Y-84026428D01*
X176375143Y-84169285D01*
X176232286Y-84240714D01*
X175660857Y-84240714D01*
X175518000Y-84169285D01*
X175446571Y-84026428D01*
X175446571Y-83740714D01*
X175518000Y-83597857D01*
X175660857Y-83526428D01*
X175803714Y-83526428D01*
X175946571Y-84240714D01*
X176375143Y-82240714D02*
X176446571Y-82383571D01*
X176446571Y-82669285D01*
X176375143Y-82812143D01*
X176303714Y-82883571D01*
X176160857Y-82955000D01*
X175732286Y-82955000D01*
X175589429Y-82883571D01*
X175518000Y-82812143D01*
X175446571Y-82669285D01*
X175446571Y-82383571D01*
X175518000Y-82240714D01*
X175446571Y-81812143D02*
X175446571Y-81240714D01*
X174946571Y-81597857D02*
X176232286Y-81597857D01*
X176375143Y-81526429D01*
X176446571Y-81383571D01*
X176446571Y-81240714D01*
X152586571Y-86419286D02*
X152586571Y-85847857D01*
X152086571Y-86205000D02*
X153372286Y-86205000D01*
X153515143Y-86133572D01*
X153586571Y-85990714D01*
X153586571Y-85847857D01*
X153515143Y-84776429D02*
X153586571Y-84919286D01*
X153586571Y-85205000D01*
X153515143Y-85347857D01*
X153372286Y-85419286D01*
X152800857Y-85419286D01*
X152658000Y-85347857D01*
X152586571Y-85205000D01*
X152586571Y-84919286D01*
X152658000Y-84776429D01*
X152800857Y-84705000D01*
X152943714Y-84705000D01*
X153086571Y-85419286D01*
X153515143Y-84133572D02*
X153586571Y-83990715D01*
X153586571Y-83705000D01*
X153515143Y-83562143D01*
X153372286Y-83490715D01*
X153300857Y-83490715D01*
X153158000Y-83562143D01*
X153086571Y-83705000D01*
X153086571Y-83919286D01*
X153015143Y-84062143D01*
X152872286Y-84133572D01*
X152800857Y-84133572D01*
X152658000Y-84062143D01*
X152586571Y-83919286D01*
X152586571Y-83705000D01*
X152658000Y-83562143D01*
X152586571Y-83062143D02*
X152586571Y-82490714D01*
X152086571Y-82847857D02*
X153372286Y-82847857D01*
X153515143Y-82776429D01*
X153586571Y-82633571D01*
X153586571Y-82490714D01*
X161195856Y-134600000D02*
X161124428Y-134528571D01*
X160981571Y-134314286D01*
X160910142Y-134171429D01*
X160838713Y-133957143D01*
X160767285Y-133600000D01*
X160767285Y-133314286D01*
X160838713Y-132957143D01*
X160910142Y-132742857D01*
X160981571Y-132600000D01*
X161124428Y-132385714D01*
X161195856Y-132314286D01*
X162410142Y-133957143D02*
X162267285Y-134028571D01*
X161981571Y-134028571D01*
X161838713Y-133957143D01*
X161767285Y-133885714D01*
X161695856Y-133742857D01*
X161695856Y-133314286D01*
X161767285Y-133171429D01*
X161838713Y-133100000D01*
X161981571Y-133028571D01*
X162267285Y-133028571D01*
X162410142Y-133100000D01*
X162910142Y-134600000D02*
X162981570Y-134528571D01*
X163124427Y-134314286D01*
X163195856Y-134171429D01*
X163267285Y-133957143D01*
X163338713Y-133600000D01*
X163338713Y-133314286D01*
X163267285Y-132957143D01*
X163195856Y-132742857D01*
X163124427Y-132600000D01*
X162981570Y-132385714D01*
X162910142Y-132314286D01*
X165195856Y-134028571D02*
X165195856Y-132528571D01*
X165195856Y-133242857D02*
X166052999Y-133242857D01*
X166052999Y-134028571D02*
X166052999Y-132528571D01*
X166767285Y-134028571D02*
X166767285Y-133028571D01*
X166767285Y-132528571D02*
X166695856Y-132600000D01*
X166767285Y-132671429D01*
X166838713Y-132600000D01*
X166767285Y-132528571D01*
X166767285Y-132671429D01*
X167481571Y-134028571D02*
X167481571Y-133028571D01*
X167481571Y-133314286D02*
X167552999Y-133171429D01*
X167624428Y-133100000D01*
X167767285Y-133028571D01*
X167910142Y-133028571D01*
X168624428Y-134028571D02*
X168481570Y-133957143D01*
X168410142Y-133885714D01*
X168338713Y-133742857D01*
X168338713Y-133314286D01*
X168410142Y-133171429D01*
X168481570Y-133100000D01*
X168624428Y-133028571D01*
X168838713Y-133028571D01*
X168981570Y-133100000D01*
X169052999Y-133171429D01*
X169124428Y-133314286D01*
X169124428Y-133742857D01*
X169052999Y-133885714D01*
X168981570Y-133957143D01*
X168838713Y-134028571D01*
X168624428Y-134028571D01*
X169695856Y-133957143D02*
X169838713Y-134028571D01*
X170124428Y-134028571D01*
X170267285Y-133957143D01*
X170338713Y-133814286D01*
X170338713Y-133742857D01*
X170267285Y-133600000D01*
X170124428Y-133528571D01*
X169910142Y-133528571D01*
X169767285Y-133457143D01*
X169695856Y-133314286D01*
X169695856Y-133242857D01*
X169767285Y-133100000D01*
X169910142Y-133028571D01*
X170124428Y-133028571D01*
X170267285Y-133100000D01*
X170981571Y-134028571D02*
X170981571Y-132528571D01*
X171624428Y-134028571D02*
X171624428Y-133242857D01*
X171552999Y-133100000D01*
X171410142Y-133028571D01*
X171195857Y-133028571D01*
X171052999Y-133100000D01*
X170981571Y-133171429D01*
X172338714Y-134028571D02*
X172338714Y-133028571D01*
X172338714Y-132528571D02*
X172267285Y-132600000D01*
X172338714Y-132671429D01*
X172410142Y-132600000D01*
X172338714Y-132528571D01*
X172338714Y-132671429D01*
X174195857Y-134028571D02*
X174195857Y-132528571D01*
X174767286Y-133028571D02*
X175053000Y-134028571D01*
X175338714Y-133314286D01*
X175624429Y-134028571D01*
X175910143Y-133028571D01*
X177124429Y-134028571D02*
X177124429Y-133242857D01*
X177053000Y-133100000D01*
X176910143Y-133028571D01*
X176624429Y-133028571D01*
X176481572Y-133100000D01*
X177124429Y-133957143D02*
X176981572Y-134028571D01*
X176624429Y-134028571D01*
X176481572Y-133957143D01*
X176410143Y-133814286D01*
X176410143Y-133671429D01*
X176481572Y-133528571D01*
X176624429Y-133457143D01*
X176981572Y-133457143D01*
X177124429Y-133385714D01*
X177624429Y-133028571D02*
X178195858Y-133028571D01*
X177838715Y-132528571D02*
X177838715Y-133814286D01*
X177910143Y-133957143D01*
X178053001Y-134028571D01*
X178195858Y-134028571D01*
X179338715Y-134028571D02*
X179338715Y-133242857D01*
X179267286Y-133100000D01*
X179124429Y-133028571D01*
X178838715Y-133028571D01*
X178695858Y-133100000D01*
X179338715Y-133957143D02*
X179195858Y-134028571D01*
X178838715Y-134028571D01*
X178695858Y-133957143D01*
X178624429Y-133814286D01*
X178624429Y-133671429D01*
X178695858Y-133528571D01*
X178838715Y-133457143D01*
X179195858Y-133457143D01*
X179338715Y-133385714D01*
X156790858Y-129353571D02*
X157790858Y-129353571D01*
X157148001Y-130853571D01*
X159005143Y-129853571D02*
X159005143Y-130853571D01*
X158648000Y-129282143D02*
X158290857Y-130353571D01*
X159219429Y-130353571D01*
X159648000Y-130853571D02*
X160433714Y-129853571D01*
X159648000Y-129853571D02*
X160433714Y-130853571D01*
X160862286Y-130853571D02*
X161648000Y-129853571D01*
X160862286Y-129853571D02*
X161648000Y-130853571D01*
X161862286Y-130996429D02*
X163005143Y-130996429D01*
X163148000Y-129853571D02*
X163719429Y-129853571D01*
X163362286Y-129353571D02*
X163362286Y-130639286D01*
X163433714Y-130782143D01*
X163576572Y-130853571D01*
X163719429Y-130853571D01*
X164790857Y-130782143D02*
X164648000Y-130853571D01*
X164362286Y-130853571D01*
X164219429Y-130782143D01*
X164148000Y-130639286D01*
X164148000Y-130067857D01*
X164219429Y-129925000D01*
X164362286Y-129853571D01*
X164648000Y-129853571D01*
X164790857Y-129925000D01*
X164862286Y-130067857D01*
X164862286Y-130210714D01*
X164148000Y-130353571D01*
X165433714Y-130782143D02*
X165576571Y-130853571D01*
X165862286Y-130853571D01*
X166005143Y-130782143D01*
X166076571Y-130639286D01*
X166076571Y-130567857D01*
X166005143Y-130425000D01*
X165862286Y-130353571D01*
X165648000Y-130353571D01*
X165505143Y-130282143D01*
X165433714Y-130139286D01*
X165433714Y-130067857D01*
X165505143Y-129925000D01*
X165648000Y-129853571D01*
X165862286Y-129853571D01*
X166005143Y-129925000D01*
X166505143Y-129853571D02*
X167076572Y-129853571D01*
X166719429Y-129353571D02*
X166719429Y-130639286D01*
X166790857Y-130782143D01*
X166933715Y-130853571D01*
X167076572Y-130853571D01*
X168148000Y-130782143D02*
X168005143Y-130853571D01*
X167719429Y-130853571D01*
X167576572Y-130782143D01*
X167505143Y-130639286D01*
X167505143Y-130067857D01*
X167576572Y-129925000D01*
X167719429Y-129853571D01*
X168005143Y-129853571D01*
X168148000Y-129925000D01*
X168219429Y-130067857D01*
X168219429Y-130210714D01*
X167505143Y-130353571D01*
X168862286Y-130853571D02*
X168862286Y-129853571D01*
X168862286Y-130139286D02*
X168933714Y-129996429D01*
X169005143Y-129925000D01*
X169148000Y-129853571D01*
X169290857Y-129853571D01*
X169433714Y-130996429D02*
X170576571Y-130996429D01*
X170862285Y-130782143D02*
X171005142Y-130853571D01*
X171290857Y-130853571D01*
X171433714Y-130782143D01*
X171505142Y-130639286D01*
X171505142Y-130567857D01*
X171433714Y-130425000D01*
X171290857Y-130353571D01*
X171076571Y-130353571D01*
X170933714Y-130282143D01*
X170862285Y-130139286D01*
X170862285Y-130067857D01*
X170933714Y-129925000D01*
X171076571Y-129853571D01*
X171290857Y-129853571D01*
X171433714Y-129925000D01*
X172148000Y-129853571D02*
X172148000Y-131353571D01*
X172148000Y-129925000D02*
X172290857Y-129853571D01*
X172576571Y-129853571D01*
X172719428Y-129925000D01*
X172790857Y-129996429D01*
X172862286Y-130139286D01*
X172862286Y-130567857D01*
X172790857Y-130710714D01*
X172719428Y-130782143D01*
X172576571Y-130853571D01*
X172290857Y-130853571D01*
X172148000Y-130782143D01*
X173505143Y-130853571D02*
X173505143Y-129853571D01*
X173505143Y-129353571D02*
X173433714Y-129425000D01*
X173505143Y-129496429D01*
X173576571Y-129425000D01*
X173505143Y-129353571D01*
X173505143Y-129496429D01*
X175219429Y-129853571D02*
X175576572Y-130853571D01*
X175933714Y-129853571D01*
X177290857Y-130853571D02*
X176433714Y-130853571D01*
X176862286Y-130853571D02*
X176862286Y-129353571D01*
X176719429Y-129567857D01*
X176576571Y-129710714D01*
X176433714Y-129782143D01*
X177933714Y-130710714D02*
X178005142Y-130782143D01*
X177933714Y-130853571D01*
X177862285Y-130782143D01*
X177933714Y-130710714D01*
X177933714Y-130853571D01*
X178933714Y-129353571D02*
X179076571Y-129353571D01*
X179219428Y-129425000D01*
X179290857Y-129496429D01*
X179362286Y-129639286D01*
X179433714Y-129925000D01*
X179433714Y-130282143D01*
X179362286Y-130567857D01*
X179290857Y-130710714D01*
X179219428Y-130782143D01*
X179076571Y-130853571D01*
X178933714Y-130853571D01*
X178790857Y-130782143D01*
X178719428Y-130710714D01*
X178648000Y-130567857D01*
X178576571Y-130282143D01*
X178576571Y-129925000D01*
X178648000Y-129639286D01*
X178719428Y-129496429D01*
X178790857Y-129425000D01*
X178933714Y-129353571D01*
M02*
