M48
;DRILL file {KiCad 4.0.1-stable} date 2017/02/01 16:31:32
;FORMAT={-:-/ absolute / inch / decimal}
FMAT,2
INCH,TZ
T1C0.030
T2C0.031
T3C0.039
T4C0.040
%
G90
G05
M72
T1
X5.17Y-4.075
X5.17Y-4.175
X5.17Y-4.275
X5.17Y-4.375
X5.17Y-4.475
X5.17Y-4.575
X5.47Y-4.075
X5.47Y-4.175
X5.47Y-4.275
X5.47Y-4.375
X5.47Y-4.475
X5.47Y-4.575
X5.51Y-3.11
X5.61Y-3.11
X5.71Y-3.11
X5.81Y-3.11
X5.87Y-5.025
X5.91Y-2.875
X6.01Y-2.875
X6.07Y-5.025
X6.17Y-2.825
X6.27Y-2.825
X6.37Y-2.825
X6.47Y-2.825
X6.57Y-2.825
X6.67Y-2.825
T2
X4.77Y-3.275
X4.77Y-3.375
X4.77Y-3.475
X4.77Y-3.575
X4.77Y-3.675
X4.77Y-3.775
X4.77Y-3.875
X4.77Y-3.975
X4.77Y-4.075
X4.77Y-4.175
X4.77Y-4.275
X4.77Y-4.375
X4.77Y-4.475
X4.77Y-4.575
X5.07Y-3.275
X5.07Y-3.375
X5.07Y-3.475
X5.07Y-3.575
X5.07Y-3.675
X5.07Y-3.775
X5.07Y-3.875
X5.07Y-3.975
X5.07Y-4.075
X5.07Y-4.175
X5.07Y-4.275
X5.07Y-4.375
X5.07Y-4.475
X5.07Y-4.575
X5.57Y-5.125
X5.72Y-3.775
X5.72Y-4.375
X5.82Y-3.775
X5.82Y-4.375
X5.87Y-5.125
X5.92Y-3.775
X5.92Y-4.375
X6.02Y-3.775
X6.02Y-4.375
X6.12Y-3.775
X6.12Y-4.375
X6.22Y-3.775
X6.22Y-4.375
X6.32Y-3.775
X6.32Y-4.375
X6.42Y-3.775
X6.42Y-4.375
X6.52Y-3.775
X6.52Y-4.375
X6.62Y-3.775
X6.62Y-4.375
X6.72Y-3.775
X6.72Y-4.375
X6.82Y-3.775
X6.82Y-4.375
X6.92Y-3.775
X6.92Y-4.375
X7.02Y-3.775
X7.02Y-4.375
T3
X6.22Y-3.1888
X6.22Y-3.425
X6.3775Y-3.1888
X6.3775Y-3.425
X6.57Y-3.1888
X6.57Y-3.425
X6.7275Y-3.1888
X6.7275Y-3.425
T4
X4.07Y-3.175
X4.07Y-3.275
X4.07Y-3.375
X4.07Y-3.475
X4.07Y-3.575
X4.07Y-3.675
X4.07Y-3.775
X4.07Y-3.875
X4.07Y-3.975
X4.07Y-4.075
X4.07Y-4.175
X4.07Y-4.275
X4.07Y-4.375
X4.07Y-4.475
X4.07Y-4.575
X4.07Y-4.675
X4.87Y-5.125
X4.87Y-5.225
X5.11Y-2.975
X5.21Y-2.975
X5.31Y-2.975
X5.32Y-5.125
X5.32Y-5.225
X5.41Y-2.975
X5.47Y-4.875
X5.51Y-2.975
X5.57Y-4.875
X5.61Y-2.975
X5.67Y-4.875
X5.71Y-2.975
X5.77Y-4.875
X5.81Y-2.975
X5.87Y-4.875
X5.91Y-2.975
X5.97Y-4.875
X6.01Y-2.975
X6.07Y-4.875
X6.17Y-2.975
X6.17Y-4.875
X6.27Y-2.975
X6.37Y-2.975
X6.37Y-4.875
X6.47Y-2.975
X6.47Y-4.875
X6.57Y-2.975
X6.57Y-4.875
X6.67Y-2.975
X6.67Y-4.875
X6.77Y-2.975
X6.77Y-4.875
X6.87Y-2.975
X6.87Y-4.875
T0
M30
